# xmcd
#
# Track frame offsets: 
#        150
#        8857
#        22305
#        33299
#        42870
#        54747
#        62898
#        74629
#        85373
#        98317
#        112207
#        121190
#        134780
#        146153
#        155044
#        173261
#
# Disc length: 2334 seconds
#
# Revision: 0
# Processed by: cddbd v1.5.2PL0 Copyright (c) Steve Scherf et al.
# Submitted via: ExactAudioCopy v0.99pb5
#
DISCID=e8091c10
DTITLE=Richard Cheese - Live at the Royal Wedding
DYEAR=2011
DGENRE=Pop
TTITLE0=Too Drunk to Fuck (Dead Kennedys)
TTITLE1=Anachy in the U.K. (Sex Pistols)
TTITLE2=Gin and Juice (Snoop Dogg)
TTITLE3=Low (Flo-rida)
TTITLE4=Rehab (Amy Winehouse)
TTITLE5=Smack My Bitch Up (Prodigy)
TTITLE6=Closer (Nine Inch Nails)
TTITLE7=Helter Skelter (Beatles)
TTITLE8=My Neck, My Back (Khia)
TTITLE9=Baby Got Back (Sir Mix-a-lot)
TTITLE10=Under Pressure (Queen)
TTITLE11=Down with the Sickness (Disturbed)
TTITLE12=Pussy Control (Prince)
TTITLE13=Rape Me (Nirvana)
TTITLE14=Creep (Radiohead)
TTITLE15=Outro
EXTD=
EXTT0=
EXTT1=
EXTT2=
EXTT3=
EXTT4=
EXTT5=
EXTT6=
EXTT7=
EXTT8=
EXTT9=
EXTT10=
EXTT11=
EXTT12=
EXTT13=
EXTT14=
EXTT15=
PLAYORDER=
